<svg width="48" height="48" viewBox="0 0 48 48" fill="none" xmlns="http://www.w3.org/2000/svg">
<path d="M32.38 4H15.62C8.34 4 4 8.34 4 15.62V32.36C4 39.66 8.34 44 15.62 44H32.36C39.64 44 43.98 39.66 43.98 32.38V15.62C44 8.34 39.66 4 32.38 4ZM34 34.5H14C13.18 34.5 12.5 33.82 12.5 33C12.5 32.18 13.18 31.5 14 31.5H34C34.82 31.5 35.5 32.18 35.5 33C35.5 33.82 34.82 34.5 34 34.5ZM34 25.5H14C13.18 25.5 12.5 24.82 12.5 24C12.5 23.18 13.18 22.5 14 22.5H34C34.82 22.5 35.5 23.18 35.5 24C35.5 24.82 34.82 25.5 34 25.5ZM34 16.5H14C13.18 16.5 12.5 15.82 12.5 15C12.5 14.18 13.18 13.5 14 13.5H34C34.82 13.5 35.5 14.18 35.5 15C35.5 15.82 34.82 16.5 34 16.5Z" fill="#5D50C6"/>
<rect x="11" y="11" width="29" height="28" fill="#5D50C6"/>
<path d="M33.25 15.7502C32.9765 15.4768 32.6056 15.3232 32.2189 15.3232C31.8322 15.3232 31.4614 15.4768 31.1879 15.7502L24.5 22.4381L17.8121 15.7502C17.5386 15.4768 17.1677 15.3232 16.781 15.3232C16.3943 15.3232 16.0235 15.4768 15.75 15.7502C15.4766 16.0237 15.323 16.3946 15.323 16.7813C15.323 17.168 15.4766 17.5388 15.75 17.8123L22.4379 24.5002L15.75 31.1881C15.4766 31.4616 15.323 31.8325 15.323 32.2192C15.323 32.6059 15.4766 32.9767 15.75 33.2502C16.0235 33.5236 16.3943 33.6772 16.781 33.6772C17.1677 33.6772 17.5386 33.5236 17.8121 33.2502L24.5 26.5623L31.1879 33.2502C31.4614 33.5236 31.8322 33.6772 32.2189 33.6772C32.6056 33.6772 32.9765 33.5236 33.25 33.2502C33.5234 32.9767 33.677 32.6059 33.677 32.2192C33.677 31.8325 33.5234 31.4616 33.25 31.1881L26.5621 24.5002L33.25 17.8123C33.5234 17.5388 33.677 17.168 33.677 16.7813C33.677 16.3946 33.5234 16.0237 33.25 15.7502Z" fill="white"/>
</svg>
