<svg width="21" height="21" viewBox="0 0 21 21" fill="none" xmlns="http://www.w3.org/2000/svg">
<path d="M10.9644 0.592285C5.44436 0.592285 0.964355 5.07229 0.964355 10.5923C0.964355 16.1123 5.44436 20.5923 10.9644 20.5923C16.4844 20.5923 20.9644 16.1123 20.9644 10.5923C20.9644 5.07229 16.4944 0.592285 10.9644 0.592285ZM13.9644 12.8223L11.0643 14.4923C10.7043 14.7023 10.3044 14.8023 9.91431 14.8023C9.51441 14.8023 9.12431 14.7023 8.76436 14.4923C8.04436 14.0723 7.61436 13.3323 7.61436 12.4923V9.14229C7.61436 8.31229 8.04436 7.56229 8.76436 7.14229C9.48441 6.72229 10.3443 6.72229 11.0743 7.14229L13.9743 8.81229C14.6943 9.23229 15.1243 9.97229 15.1243 10.8123C15.1243 11.6523 14.6943 12.4023 13.9644 12.8223Z" fill="#5D50C6"/>
</svg>
